<svg fill="#3C4A3B" xmlns="http://www.w3.org/2000/svg" xmlns:xlink="http://www.w3.org/1999/xlink" version="1.1" x="0px" y="0px" viewBox="0 0 100 100" enable-background="new 0 0 100 100" xml:space="preserve"><g><g><path d="M50,72.244c-12.266,0-22.244-9.979-22.244-22.244S37.734,27.756,50,27.756S72.244,37.734,72.244,50    S62.266,72.244,50,72.244z M50,31.847c-10.01,0-18.153,8.143-18.153,18.153S39.99,68.153,50,68.153S68.153,60.01,68.153,50    S60.01,31.847,50,31.847z"></path></g><g><path d="M64.574,95H35.426C18.649,95,5,81.351,5,64.574V35.426C5,18.649,18.649,5,35.426,5h29.148C81.351,5,95,18.649,95,35.426    v29.148C95,81.351,81.351,95,64.574,95z M35.426,9.091c-14.521,0-26.335,11.814-26.335,26.335v29.148    c0,14.521,11.814,26.335,26.335,26.335h29.148c14.521,0,26.335-11.814,26.335-26.335V35.426c0-14.521-11.814-26.335-26.335-26.335    H35.426z"></path></g><g><path d="M74.29,33.253c-4.159,0-7.543-3.384-7.543-7.543s3.384-7.543,7.543-7.543c4.159,0,7.543,3.384,7.543,7.543    S78.449,33.253,74.29,33.253z M74.29,22.259c-1.903,0-3.452,1.549-3.452,3.452s1.549,3.452,3.452,3.452s3.452-1.549,3.452-3.452    S76.193,22.259,74.29,22.259z"></path></g></g></svg>